<svg xmlns="http://www.w3.org/2000/svg" viewBox="0 0 1200 760">
  <defs><linearGradient id="sky" x1="0" y1="0" x2="1" y2="1"><stop stop-color="#0A72B7"/><stop offset=".6" stop-color="#35A8D9"/><stop offset="1" stop-color="#B9E4F0"/></linearGradient></defs>
  <rect width="1200" height="760" fill="#F6F0E7"/>
  <text x="72" y="78" fill="#766E65" font-family="Inter,system-ui,sans-serif" font-size="15" font-weight="700" letter-spacing="2">YEABSIRA MEKURIA / RAM FLAME</text>
  <g transform="translate(78 122)"><g transform="translate(0 0) scale(.43)"><path d="M100 213V119C100 70 68 28 37 28 18 28 6 42 6 61c0 27 23 45 49 45 23 0 39-14 45-35" fill="none" stroke="#171717" stroke-width="15" stroke-linecap="round"/><path d="M100 119C100 70 132 28 163 28c19 0 31 14 31 33 0 27-23 45-49 45-23 0-39-14-45-35" fill="none" stroke="#FF5A14" stroke-width="15" stroke-linecap="round"/><path d="M100 119V181" fill="none" stroke="#171717" stroke-width="15" stroke-linecap="round"/></g><text x="96" y="48" fill="#171717" font-family="Inter,system-ui,sans-serif" font-size="31" font-weight="720" letter-spacing="-1.4">Yeabsira Mekuria</text><path d="M98 66H130" stroke="#FF5A14" stroke-width="3.5" stroke-linecap="round"/><text x="142" y="71" fill="#6C6761" font-family="Inter,system-ui,sans-serif" font-size="11" font-weight="700" letter-spacing="3.2">PRODUCT ENGINEER</text></g>
  <text x="72" y="276" fill="#5E5851" font-family="Inter,system-ui,sans-serif" font-size="19">A personal glyph with Aries energy: bold, balanced, and built to stand apart.</text>
  <rect x="72" y="332" width="670" height="356" rx="28" fill="url(#sky)"/>
  <path d="M72 581C192 519 298 594 421 530S623 501 742 584V688H72Z" fill="#00688F" opacity=".55"/>
  <path d="M72 618C198 558 327 646 470 572S641 567 742 611V688H72Z" fill="#005274" opacity=".64"/>
  <g transform="translate(119 428) scale(.45)"><path d="M100 213V119C100 70 68 28 37 28 18 28 6 42 6 61c0 27 23 45 49 45 23 0 39-14 45-35" fill="none" stroke="#F8F4ED" stroke-width="15" stroke-linecap="round"/><path d="M100 119C100 70 132 28 163 28c19 0 31 14 31 33 0 27-23 45-49 45-23 0-39-14-45-35" fill="none" stroke="#FF5A14" stroke-width="15" stroke-linecap="round"/><path d="M100 119V181" fill="none" stroke="#F8F4ED" stroke-width="15" stroke-linecap="round"/></g><text x="220" y="469" fill="#F8F4ED" font-family="Inter,system-ui,sans-serif" font-size="31" font-weight="720" letter-spacing="-1.4">Yeabsira Mekuria</text><path d="M222 487H254" stroke="#FF5A14" stroke-width="3.5" stroke-linecap="round"/><text x="266" y="492" fill="#F0EAE1" font-family="Inter,system-ui,sans-serif" font-size="11" font-weight="700" letter-spacing="3.2">PRODUCT ENGINEER</text>
  <text x="119" y="638" fill="#F8F4ED" font-family="Inter,system-ui,sans-serif" font-size="14" font-weight="700" letter-spacing="2">DESIGNED FOR THE HERO IMAGE</text>
  <rect x="784" y="332" width="344" height="356" rx="28" fill="#EAE2D7"/>
  <text x="816" y="379" fill="#766E65" font-family="Inter,system-ui,sans-serif" font-size="13" font-weight="700" letter-spacing="1.8">FAVICON / SCALE</text>
  <g transform="translate(875 425) scale(1.8)"><rect width="64" height="64" rx="17" fill="#171717"/><g transform="translate(10 8) scale(.22)"><path d="M100 213V119C100 70 68 28 37 28 18 28 6 42 6 61c0 27 23 45 49 45 23 0 39-14 45-35" fill="none" stroke="#F8F4ED" stroke-width="16" stroke-linecap="round"/><path d="M100 119C100 70 132 28 163 28c19 0 31 14 31 33 0 27-23 45-49 45-23 0-39-14-45-35" fill="none" stroke="#FF5A14" stroke-width="16" stroke-linecap="round"/><path d="M100 119V181" fill="none" stroke="#F8F4ED" stroke-width="16" stroke-linecap="round"/></g></g>
  <text x="816" y="617" fill="#171717" font-family="Inter,system-ui,sans-serif" font-size="20" font-weight="700">RAM FLAME</text><text x="816" y="648" fill="#706960" font-family="Inter,system-ui,sans-serif" font-size="15">No initials. No generic symbol.</text>
</svg>
