<svg xmlns="http://www.w3.org/2000/svg" viewBox="0 0 64 64" fill="none">
  <title>Yeabsira Mekuria</title>
  <rect width="64" height="64" rx="17" fill="#171717"/>
  <g transform="translate(10 8) scale(.22)">
    <path d="M100 213V119C100 70 68 28 37 28 18 28 6 42 6 61c0 27 23 45 49 45 23 0 39-14 45-35" stroke="#F8F4ED" stroke-width="16" stroke-linecap="round"/>
    <path d="M100 119C100 70 132 28 163 28c19 0 31 14 31 33 0 27-23 45-49 45-23 0-39-14-45-35" stroke="#FF5A14" stroke-width="16" stroke-linecap="round"/>
    <path d="M100 119V181" stroke="#F8F4ED" stroke-width="16" stroke-linecap="round"/>
  </g>
</svg>
